# xmcd
#
# Track frame offsets: 
#        150
#        18776
#        34099
#        50204
#        67140
#        83355
#        93545
#        114968
#        131860
#        151714
#        170423
#
# Disc length: 2401 seconds
#
# Revision: 0
# Processed by: cddbd v1.5.2PL0 Copyright (c) Steve Scherf et al.
# Submitted via: ExactAudioCopy v1.0b4
#
DISCID=86095f0b
DTITLE=BABAJACK - ROOSTER
DYEAR=2012
DGENRE=Blues
TTITLE0=The Money's All Gone
TTITLE1=Plenty More Fish
TTITLE2=Burn all the Bridges
TTITLE3=Skin and Bone
TTITLE4=Crying for my Home
TTITLE5=Raine's Song
TTITLE6=Sunday Afternoon
TTITLE7=Rooster Blues
TTITLE8=Gallows Pole
TTITLE9=Don't Get Me Wrong
TTITLE10=Som' these Days
EXTD=
EXTT0=
EXTT1=
EXTT2=
EXTT3=
EXTT4=
EXTT5=
EXTT6=
EXTT7=
EXTT8=
EXTT9=
EXTT10=
PLAYORDER=
